<?xml version="1.0" encoding="utf-8"?>
<!-- Generator: Adobe Illustrator 27.5.0, SVG Export Plug-In . SVG Version: 6.00 Build 0)  -->
<svg version="1.1" id="Layer_1" xmlns="http://www.w3.org/2000/svg" xmlns:xlink="http://www.w3.org/1999/xlink" x="0px" y="0px"
	 viewBox="0 0 1000 1000" style="enable-background:new 0 0 1000 1000;" xml:space="preserve">
<g>
	<polygon style="fill:#2D2D2D;" points="601.448,233.855 542.961,375.484 577.528,424.515 552.627,424.515 594.093,638.991 
		476.103,638.991 484.719,424.761 524.399,376.045 468.258,247.373 491.408,199.953 484.684,178.765 515.398,178.765 
		509.584,199.953 539.669,262.538 	"/>
	<polygon style="fill:#0C0C0C;" points="468.258,247.373 524.399,376.045 484.719,424.761 476.103,638.991 398.739,638.991 
		442.097,424.515 416.951,424.515 453.794,375.484 398.739,233.855 460.869,262.538 	"/>
	<polygon style="fill:#0C0C0C;" points="468.083,246.953 468.258,247.373 460.869,262.538 	"/>
	<rect x="365.9" y="649.498" style="fill:#2D2D2D;" width="266.554" height="69.572"/>
	<rect x="405.685" y="730.178" style="fill:#2D2D2D;" width="244.315" height="91.058"/>
	<rect x="350" y="730.178" style="fill:#0C0C0C;" width="55.685" height="91.058"/>
	<rect x="365.9" y="649.498" style="fill:#0C0C0C;" width="92.087" height="69.572"/>
</g>
</svg>
